<svg width="625" height="677" viewBox="0 0 625 677" fill="none" xmlns="http://www.w3.org/2000/svg">
<g clip-path="url(#clip0_301_42)">
<path d="M98.9078 524.823V520.728L153.898 464.1H157.993L121.372 501.891L119.5 503.763L98.9078 524.823ZM96.2168 546V464.1H99.4928V546H96.2168ZM156.589 546L118.096 502.359L120.319 500.136L160.684 546H156.589ZM207.665 546.351C197.837 546.351 190.037 543.465 184.265 537.693C178.571 531.921 175.724 523.224 175.724 511.602V464.1H179V511.485C179 522.249 181.496 530.283 186.488 535.587C191.48 540.813 198.539 543.426 207.665 543.426C216.791 543.426 223.85 540.813 228.842 535.587C233.834 530.283 236.33 522.249 236.33 511.485V464.1H239.489V511.602C239.489 523.224 236.642 531.921 230.948 537.693C225.254 543.465 217.493 546.351 207.665 546.351ZM269.317 546V464.1H297.514C304.222 464.1 309.994 465.192 314.83 467.376C319.666 469.482 323.371 472.563 325.945 476.619C328.519 480.597 329.806 485.433 329.806 491.127C329.806 496.821 328.519 501.696 325.945 505.752C323.371 509.73 319.666 512.811 314.83 514.995C309.994 517.179 304.222 518.271 297.514 518.271H271.072L272.593 516.75V546H269.317ZM272.593 516.633L271.072 515.229H297.631C307.069 515.229 314.245 513.123 319.159 508.911C324.151 504.699 326.647 498.771 326.647 491.127C326.647 483.483 324.151 477.555 319.159 473.343C314.245 469.131 307.069 467.025 297.631 467.025H271.072L272.593 465.621V516.633ZM332.967 546L370.875 464.1H374.151L412.059 546H408.432L371.811 466.44H373.215L336.477 546H332.967ZM345.837 521.664L347.124 518.856H397.551L398.955 521.664H345.837ZM418.773 546V543.66L478.794 465.855L479.028 467.025H419.475V464.1H482.304V466.44L422.4 544.245L422.166 543.075H483.591V546H418.773Z" fill="#222222"/>
<circle cx="451.5" cy="448.5" r="1.5" fill="#222222" stroke="#222222" stroke-width="2"/>
<circle cx="457.5" cy="46.5" r="6.5" stroke="#222222" stroke-width="2"/>
<circle cx="475" cy="28" r="9" stroke="#222222" stroke-width="2"/>
<circle cx="445.5" cy="12.5" r="11.5" stroke="#222222" stroke-width="2"/>
<line x1="237" y1="577" x2="6" y2="577" stroke="#222222" stroke-width="2"/>
<path d="M18.72 345.835C18.72 346.859 18.52 347.755 18.12 348.523C17.736 349.307 17.144 349.915 16.344 350.347C15.544 350.795 14.536 351.019 13.32 351.019H6V349.315H13.152C14.48 349.315 15.48 348.979 16.152 348.307C16.84 347.651 17.184 346.723 17.184 345.523C17.184 344.627 17 343.843 16.632 343.171C16.28 342.515 15.76 342.003 15.072 341.635C14.4 341.283 13.584 341.107 12.624 341.107H6V339.403H18.6V341.035H15.144L15.792 340.771C16.704 341.171 17.416 341.811 17.928 342.691C18.456 343.571 18.72 344.619 18.72 345.835ZM6 355.622H18.6V357.326H6V355.622ZM21.384 356.486C21.384 356.134 21.504 355.838 21.744 355.598C21.984 355.358 22.272 355.238 22.608 355.238C22.944 355.238 23.224 355.358 23.448 355.598C23.688 355.838 23.808 356.134 23.808 356.486C23.808 356.838 23.696 357.134 23.472 357.374C23.248 357.614 22.968 357.734 22.632 357.734C22.28 357.734 21.984 357.614 21.744 357.374C21.504 357.15 21.384 356.854 21.384 356.486ZM5.88 367.419C5.88 366.107 6.152 364.955 6.696 363.963C7.256 362.971 8.016 362.195 8.976 361.635C9.952 361.075 11.064 360.795 12.312 360.795C13.56 360.795 14.664 361.059 15.624 361.587C16.584 362.131 17.336 362.867 17.88 363.795C18.44 364.739 18.72 365.795 18.72 366.963C18.72 368.147 18.448 369.195 17.904 370.107C17.376 371.035 16.624 371.763 15.648 372.291C14.688 372.819 13.576 373.083 12.312 373.083C12.232 373.083 12.144 373.075 12.048 373.059C11.968 373.059 11.88 373.059 11.784 373.059L11.784 362.091H13.056V372.147L12.552 371.475C13.464 371.475 14.272 371.275 14.976 370.875C15.696 370.491 16.256 369.963 16.656 369.291C17.056 368.619 17.256 367.843 17.256 366.963C17.256 366.099 17.056 365.323 16.656 364.635C16.256 363.947 15.696 363.411 14.976 363.027C14.256 362.643 13.432 362.451 12.504 362.451H12.24C11.28 362.451 10.432 362.659 9.696 363.075C8.976 363.507 8.408 364.099 7.992 364.851C7.592 365.619 7.392 366.491 7.392 367.467C7.392 368.235 7.528 368.947 7.8 369.603C8.072 370.275 8.488 370.851 9.048 371.331L7.944 372.291C7.272 371.731 6.76 371.027 6.408 370.179C6.056 369.347 5.88 368.427 5.88 367.419ZM6 375.067H7.128L17.76 383.467L17.184 383.827L17.184 375.211H18.6L18.6 385.171H17.496L6.84 376.795L7.416 376.363V385.339H6V375.067ZM6 391.026L18.6 386.274V387.906L6.912 392.226V391.482L18.6 395.922V397.386L6.912 401.778V401.034L18.6 405.426V406.986L6 402.21V400.602L16.992 396.378V396.882L6 392.634V391.026ZM1.224 409.531C1.224 408.939 1.32 408.371 1.512 407.827C1.704 407.299 1.992 406.843 2.376 406.459L3.648 407.251C3.344 407.571 3.112 407.915 2.952 408.283C2.776 408.667 2.688 409.091 2.688 409.555C2.688 410.115 2.848 410.595 3.168 410.995C3.472 411.411 4.016 411.803 4.8 412.171L6.648 412.987L6.912 413.179L18.6 418.363V420.043L4.488 413.731C3.672 413.379 3.024 412.987 2.544 412.555C2.064 412.139 1.728 411.683 1.536 411.187C1.328 410.691 1.224 410.139 1.224 409.531ZM5.64 412.891L18.6 407.083V408.859L7.032 413.995L5.64 412.891ZM9.264 423.786L11.448 423.834L18.6 431.682V433.77L13.296 428.226L12.48 427.266L9.264 423.786ZM6 422.442H23.808V424.146H6L6 422.442ZM6 432.21L12.552 426.954L13.872 428.058L6 434.298V432.21ZM6 436.976H23.808V438.68H6V436.976ZM11.832 435.32L12.864 434.528L17.232 440.336L16.176 441.104L11.832 435.32ZM5.88 448.912C5.88 447.6 6.152 446.448 6.696 445.456C7.256 444.464 8.016 443.688 8.976 443.128C9.952 442.568 11.064 442.288 12.312 442.288C13.56 442.288 14.664 442.552 15.624 443.08C16.584 443.624 17.336 444.36 17.88 445.288C18.44 446.232 18.72 447.288 18.72 448.456C18.72 449.64 18.448 450.688 17.904 451.6C17.376 452.528 16.624 453.256 15.648 453.784C14.688 454.312 13.576 454.576 12.312 454.576C12.232 454.576 12.144 454.568 12.048 454.552C11.968 454.552 11.88 454.552 11.784 454.552V443.584H13.056V453.64L12.552 452.968C13.464 452.968 14.272 452.768 14.976 452.368C15.696 451.984 16.256 451.456 16.656 450.784C17.056 450.112 17.256 449.336 17.256 448.456C17.256 447.592 17.056 446.816 16.656 446.128C16.256 445.44 15.696 444.904 14.976 444.52C14.256 444.136 13.432 443.944 12.504 443.944H12.24C11.28 443.944 10.432 444.152 9.696 444.568C8.976 445 8.408 445.592 7.992 446.344C7.592 447.112 7.392 447.984 7.392 448.96C7.392 449.728 7.528 450.44 7.8 451.096C8.072 451.768 8.488 452.344 9.048 452.824L7.944 453.784C7.272 453.224 6.76 452.52 6.408 451.672C6.056 450.84 5.88 449.92 5.88 448.912ZM18.72 470.757C18.72 471.781 18.52 472.677 18.12 473.445C17.736 474.229 17.144 474.837 16.344 475.269C15.544 475.717 14.536 475.941 13.32 475.941H6V474.237H13.152C14.48 474.237 15.48 473.901 16.152 473.229C16.84 472.573 17.184 471.645 17.184 470.445C17.184 469.549 17 468.765 16.632 468.093C16.28 467.437 15.76 466.925 15.072 466.557C14.4 466.205 13.584 466.029 12.624 466.029H6V464.325H18.6V465.957H15.144L15.792 465.693C16.704 466.093 17.416 466.733 17.928 467.613C18.456 468.493 18.72 469.541 18.72 470.757ZM6 488.44H8.784L9.24 488.368H13.896C14.968 488.368 15.792 488.064 16.368 487.456C16.944 486.864 17.232 485.976 17.232 484.792C17.232 483.976 17.096 483.2 16.824 482.464C16.552 481.728 16.192 481.104 15.744 480.592L17.016 479.824C17.56 480.464 17.976 481.232 18.264 482.128C18.568 483.024 18.72 483.968 18.72 484.96C18.72 486.592 18.312 487.848 17.496 488.728C16.696 489.624 15.472 490.072 13.824 490.072H6V488.44ZM5.88 484.096C5.88 483.152 6.032 482.328 6.336 481.624C6.656 480.936 7.088 480.408 7.632 480.04C8.192 479.672 8.832 479.488 9.552 479.488C10.208 479.488 10.8 479.64 11.328 479.944C11.872 480.264 12.304 480.776 12.624 481.48C12.96 482.2 13.128 483.16 13.128 484.36V488.704H11.856V484.408C11.856 483.192 11.64 482.344 11.208 481.864C10.776 481.4 10.24 481.168 9.6 481.168C8.88 481.168 8.304 481.448 7.872 482.008C7.44 482.568 7.224 483.352 7.224 484.36C7.224 485.32 7.44 486.144 7.872 486.832C8.32 487.536 8.96 488.048 9.792 488.368L8.616 488.752C7.784 488.432 7.12 487.872 6.624 487.072C6.128 486.288 5.88 485.296 5.88 484.096ZM6 494.7H23.808V496.404H6V494.7ZM5.88 506.498C5.88 505.186 6.152 504.034 6.696 503.042C7.256 502.05 8.016 501.274 8.976 500.714C9.952 500.154 11.064 499.874 12.312 499.874C13.56 499.874 14.664 500.138 15.624 500.666C16.584 501.21 17.336 501.946 17.88 502.874C18.44 503.818 18.72 504.874 18.72 506.042C18.72 507.226 18.448 508.274 17.904 509.186C17.376 510.114 16.624 510.842 15.648 511.37C14.688 511.898 13.576 512.162 12.312 512.162C12.232 512.162 12.144 512.154 12.048 512.138C11.968 512.138 11.88 512.138 11.784 512.138V501.17H13.056V511.226L12.552 510.554C13.464 510.554 14.272 510.354 14.976 509.954C15.696 509.57 16.256 509.042 16.656 508.37C17.056 507.698 17.256 506.922 17.256 506.042C17.256 505.178 17.056 504.402 16.656 503.714C16.256 503.026 15.696 502.49 14.976 502.106C14.256 501.722 13.432 501.53 12.504 501.53H12.24C11.28 501.53 10.432 501.738 9.696 502.154C8.976 502.586 8.408 503.178 7.992 503.93C7.592 504.698 7.392 505.57 7.392 506.546C7.392 507.314 7.528 508.026 7.8 508.682C8.072 509.354 8.488 509.93 9.048 510.41L7.944 511.37C7.272 510.81 6.76 510.106 6.408 509.258C6.056 508.426 5.88 507.506 5.88 506.498ZM6 517.964L18.6 513.212V514.844L6.912 519.164V518.42L18.6 522.86V524.324L6.912 528.716V527.972L18.6 532.364V533.924L6 529.148V527.54L16.992 523.316V523.82L6 519.572V517.964ZM9.264 537.833L11.448 537.881L18.6 545.729V547.817L13.296 542.273L12.48 541.313L9.264 537.833ZM6 536.489H23.808V538.193H6V536.489ZM6 546.257L12.552 541.001L13.872 542.105L6 548.345V546.257ZM6 550.903H18.6V552.607H6V550.903ZM21.384 551.767C21.384 551.415 21.504 551.119 21.744 550.879C21.984 550.639 22.272 550.519 22.608 550.519C22.944 550.519 23.224 550.639 23.448 550.879C23.688 551.119 23.808 551.415 23.808 551.767C23.808 552.119 23.696 552.415 23.472 552.655C23.248 552.895 22.968 553.015 22.632 553.015C22.28 553.015 21.984 552.895 21.744 552.655C21.504 552.431 21.384 552.135 21.384 551.767Z" fill="#222222"/>
<g clip-path="url(#clip1_301_42)">
<path d="M620.27 390.03C622.32 393.06 622.81 396.41 622.81 400.03C622.76 463.36 623.02 526.7 622.45 590.03M622.45 590.03C622.38 597.88 622.78 605.7 622.77 613.53C622.77 626.2 622.77 638.86 622.77 651.53C622.77 663.28 613.47 673.51 601.77 674.5C597.78 674.84 593.77 675 589.77 675.01C501.27 675.04 412.77 675.03 324.27 675.04C314.58 675.04 305.71 673.19 299.78 664.53C296.69 660.02 295.25 655 295.26 649.53C295.28 636.36 294.23 603.12 295.26 590.03H622.45Z" stroke="#222222" stroke-width="3" stroke-linecap="round" stroke-linejoin="round"/>
<path d="M422.77 190.53C421.7 196.34 422.39 202.2 422.3 208.03C422.17 216.19 422.16 224.36 422.31 232.53C422.39 236.69 421.19 239.27 416.79 240.62C403.97 244.56 391.54 249.33 379.69 255.9C358.76 267.49 341.4 282.82 327.24 302.01C313.65 320.43 304.51 340.84 299.34 363.05C297.89 369.28 297.06 375.68 296.33 382.04C295.66 387.99 297.74 390.03 303.77 390.03C407.44 390.03 511.1 390.03 614.77 390.03C621.2 390.03 622.37 388.68 621.77 382.03C618.91 350.45 607.28 322.31 587.7 297.58C565.35 269.35 536.75 250.26 501.78 241C496.83 239.69 495.8 238.1 495.78 232.52C495.75 220.69 495.8 208.85 495.75 197.02C495.75 194.69 495.44 192.35 495.27 190.02" stroke="#222222" stroke-width="3" stroke-linecap="round" stroke-linejoin="round"/>
<path d="M496.27 117.53C495.44 111.38 496.24 105.16 495.67 99.04C495.01 91.87 495.16 91.11 487.77 91.07C468.77 90.96 449.77 91.01 430.77 91.04C423.73 91.05 422.41 92.49 422.25 99.53C422.11 105.7 422.77 111.89 421.77 118.03" stroke="#222222" stroke-width="3" stroke-linecap="round" stroke-linejoin="round"/>
<path d="M496.77 118.03C499.44 119.03 502.08 120.1 504.78 121.01C509.37 122.57 512.13 126.08 512.14 130.53C512.19 146.19 512.98 161.88 511.72 177.53C511.31 182.71 507.67 186.45 502.77 187.53C498.14 188.55 493.57 188.48 488.76 188.31C469.12 187.64 449.44 188.03 429.77 188.03C429.1 188.03 428.26 187.77 427.8 188.07C422.35 191.62 417.61 187.81 412.81 186.4C408.55 185.15 406.33 181.51 406.31 177.03C406.22 161.36 406.22 145.7 406.32 130.03C406.34 126.53 408.24 123.58 411.31 122.12C415.99 119.89 420.7 117.03 426.31 119.95C427.69 120.67 429.6 120.51 431.27 120.51C449.6 120.54 467.94 120.47 486.27 120.59C489.92 120.61 493.04 119.26 496.27 118.03" stroke="#222222" stroke-width="3" stroke-linecap="round" stroke-linejoin="round"/>
</g>
</g>
<defs>
<clipPath id="clip0_301_42">
<rect width="625" height="677" fill="white"/>
</clipPath>
<clipPath id="clip1_301_42">
<rect width="332" height="588" fill="white" transform="translate(293 89)"/>
</clipPath>
</defs>
</svg>
